%TF.GenerationSoftware,KiCad,Pcbnew,7.0.6*%
%TF.CreationDate,2023-08-12T12:52:26-07:00*%
%TF.ProjectId,Aux Power Supply V5,41757820-506f-4776-9572-20537570706c,rev?*%
%TF.SameCoordinates,Original*%
%TF.FileFunction,Soldermask,Bot*%
%TF.FilePolarity,Negative*%
%FSLAX46Y46*%
G04 Gerber Fmt 4.6, Leading zero omitted, Abs format (unit mm)*
G04 Created by KiCad (PCBNEW 7.0.6) date 2023-08-12 12:52:26*
%MOMM*%
%LPD*%
G01*
G04 APERTURE LIST*
G04 Aperture macros list*
%AMRoundRect*
0 Rectangle with rounded corners*
0 $1 Rounding radius*
0 $2 $3 $4 $5 $6 $7 $8 $9 X,Y pos of 4 corners*
0 Add a 4 corners polygon primitive as box body*
4,1,4,$2,$3,$4,$5,$6,$7,$8,$9,$2,$3,0*
0 Add four circle primitives for the rounded corners*
1,1,$1+$1,$2,$3*
1,1,$1+$1,$4,$5*
1,1,$1+$1,$6,$7*
1,1,$1+$1,$8,$9*
0 Add four rect primitives between the rounded corners*
20,1,$1+$1,$2,$3,$4,$5,0*
20,1,$1+$1,$4,$5,$6,$7,0*
20,1,$1+$1,$6,$7,$8,$9,0*
20,1,$1+$1,$8,$9,$2,$3,0*%
G04 Aperture macros list end*
%ADD10R,4.500000X2.500000*%
%ADD11O,4.500000X2.500000*%
%ADD12C,5.300000*%
%ADD13O,4.500000X5.000000*%
%ADD14R,1.000000X1.000000*%
%ADD15R,1.700000X1.700000*%
%ADD16O,1.700000X1.700000*%
%ADD17O,5.000000X4.500000*%
%ADD18R,4.500000X1.905000*%
%ADD19O,4.500000X1.905000*%
%ADD20C,12.000000*%
%ADD21R,1.800000X2.540000*%
%ADD22O,1.800000X2.540000*%
%ADD23R,2.006600X2.006600*%
%ADD24C,2.006600*%
%ADD25RoundRect,0.952500X3.492500X0.952500X-3.492500X0.952500X-3.492500X-0.952500X3.492500X-0.952500X0*%
%ADD26RoundRect,0.250000X-0.845000X0.620000X-0.845000X-0.620000X0.845000X-0.620000X0.845000X0.620000X0*%
%ADD27O,2.190000X1.740000*%
%ADD28C,2.000000*%
%ADD29C,3.000000*%
%ADD30C,4.000000*%
%ADD31C,5.500000*%
%ADD32C,2.500000*%
%ADD33C,10.000000*%
%ADD34C,5.000000*%
%ADD35C,2.690000*%
%ADD36R,1.398000X1.398000*%
%ADD37C,1.398000*%
%ADD38C,8.500000*%
%ADD39RoundRect,0.250000X0.475000X-0.337500X0.475000X0.337500X-0.475000X0.337500X-0.475000X-0.337500X0*%
%ADD40RoundRect,0.237500X0.237500X-0.300000X0.237500X0.300000X-0.237500X0.300000X-0.237500X-0.300000X0*%
%ADD41RoundRect,0.250000X0.362500X1.075000X-0.362500X1.075000X-0.362500X-1.075000X0.362500X-1.075000X0*%
%ADD42R,0.500000X1.600000*%
%ADD43R,0.900000X0.600000*%
%ADD44R,1.800000X1.700000*%
%ADD45RoundRect,0.250000X-0.337500X-0.475000X0.337500X-0.475000X0.337500X0.475000X-0.337500X0.475000X0*%
%ADD46RoundRect,0.250000X0.350000X0.450000X-0.350000X0.450000X-0.350000X-0.450000X0.350000X-0.450000X0*%
%ADD47RoundRect,0.250000X1.400000X1.000000X-1.400000X1.000000X-1.400000X-1.000000X1.400000X-1.000000X0*%
%ADD48RoundRect,0.250000X-0.475000X0.337500X-0.475000X-0.337500X0.475000X-0.337500X0.475000X0.337500X0*%
%ADD49RoundRect,0.250000X-0.362500X-1.075000X0.362500X-1.075000X0.362500X1.075000X-0.362500X1.075000X0*%
%ADD50RoundRect,0.250000X-0.450000X0.350000X-0.450000X-0.350000X0.450000X-0.350000X0.450000X0.350000X0*%
%ADD51RoundRect,0.237500X-0.237500X0.300000X-0.237500X-0.300000X0.237500X-0.300000X0.237500X0.300000X0*%
G04 APERTURE END LIST*
D10*
%TO.C,R36*%
X240500000Y-177000000D03*
D11*
X240500000Y-187900000D03*
%TD*%
D12*
%TO.C,H4*%
X323600000Y-213000000D03*
%TD*%
%TO.C,H8*%
X228000000Y-64000000D03*
%TD*%
D13*
%TO.C,J9*%
X222790000Y-116600000D03*
X222790000Y-127400000D03*
X228000000Y-116600000D03*
X228000000Y-127400000D03*
X233210000Y-116600000D03*
X233210000Y-127400000D03*
%TD*%
%TO.C,J8*%
X222790000Y-80600000D03*
X222790000Y-91400000D03*
X228000000Y-80600000D03*
X228000000Y-91400000D03*
X233210000Y-80600000D03*
X233210000Y-91400000D03*
%TD*%
D14*
%TO.C,TP13*%
X136000000Y-91000000D03*
%TD*%
D15*
%TO.C,JP2*%
X91975000Y-111000000D03*
D16*
X94515000Y-111000000D03*
%TD*%
D14*
%TO.C,TP10*%
X134500000Y-129750000D03*
%TD*%
D12*
%TO.C,H1*%
X82500000Y-64000000D03*
%TD*%
D17*
%TO.C,J1*%
X142600000Y-81210000D03*
X153400000Y-81210000D03*
X142600000Y-76000000D03*
X153400000Y-76000000D03*
X142600000Y-70790000D03*
X153400000Y-70790000D03*
%TD*%
D12*
%TO.C,H12*%
X150000000Y-213000000D03*
%TD*%
D10*
%TO.C,D12*%
X240500000Y-194500000D03*
D11*
X240500000Y-205400000D03*
%TD*%
D14*
%TO.C,TP5*%
X134500000Y-103750000D03*
%TD*%
%TO.C,TP9*%
X134500000Y-108250000D03*
%TD*%
D18*
%TO.C,Q1*%
X151990000Y-106480000D03*
D19*
X151990000Y-101400000D03*
X151990000Y-98860000D03*
X151990000Y-96320000D03*
%TD*%
D10*
%TO.C,R33*%
X240500000Y-72000000D03*
D11*
X240500000Y-82900000D03*
%TD*%
D20*
%TO.C,H13*%
X320500000Y-189500200D03*
%TD*%
D21*
%TO.C,U3*%
X110760000Y-103500000D03*
D22*
X113300000Y-103500000D03*
X118380000Y-103500000D03*
X120920000Y-103500000D03*
X123460000Y-103500000D03*
X126000000Y-103500000D03*
%TD*%
D14*
%TO.C,TP8*%
X134500000Y-175500000D03*
%TD*%
%TO.C,TP12*%
X134500000Y-180000000D03*
%TD*%
D21*
%TO.C,U4*%
X110760000Y-124960000D03*
D22*
X113300000Y-124960000D03*
X118380000Y-124960000D03*
X120920000Y-124960000D03*
X123460000Y-124960000D03*
X126000000Y-124960000D03*
%TD*%
D23*
%TO.C,C19*%
X136000000Y-78200000D03*
D24*
X136000000Y-68000000D03*
X98499997Y-78200000D03*
X98499997Y-68000000D03*
%TD*%
D14*
%TO.C,TP4*%
X100750000Y-120500000D03*
%TD*%
D23*
%TO.C,C20*%
X141500000Y-208500000D03*
D24*
X141500000Y-198300000D03*
X103999997Y-208500000D03*
X103999997Y-198300000D03*
%TD*%
D20*
%TO.C,H5*%
X320500000Y-138700200D03*
%TD*%
D15*
%TO.C,JP1*%
X98225000Y-179500000D03*
D16*
X100765000Y-179500000D03*
%TD*%
D25*
%TO.C,L2*%
X268000000Y-197000000D03*
X294000000Y-161000000D03*
%TD*%
D26*
%TO.C,J3*%
X325980000Y-96960000D03*
D27*
X325980000Y-99500000D03*
X325980000Y-102040000D03*
%TD*%
D18*
%TO.C,Q3*%
X151990000Y-158980000D03*
D19*
X151990000Y-153900000D03*
X151990000Y-151360000D03*
X151990000Y-148820000D03*
%TD*%
D13*
%TO.C,J10*%
X222790000Y-151100000D03*
X222790000Y-161900000D03*
X228000000Y-151100000D03*
X228000000Y-161900000D03*
X233210000Y-151100000D03*
X233210000Y-161900000D03*
%TD*%
D12*
%TO.C,H3*%
X323600000Y-64000000D03*
%TD*%
D20*
%TO.C,H15*%
X94000000Y-145250200D03*
%TD*%
D10*
%TO.C,D10*%
X240500000Y-124500000D03*
D11*
X240500000Y-135400000D03*
%TD*%
D14*
%TO.C,TP1*%
X99500000Y-138600000D03*
%TD*%
D28*
%TO.C,T2*%
X193980386Y-212772500D03*
D29*
X198124454Y-212397500D03*
D30*
X203021116Y-212022500D03*
D31*
X209980000Y-208125000D03*
D32*
X193470000Y-200822500D03*
X198550000Y-200822500D03*
X203630000Y-200822500D03*
X208710000Y-200822500D03*
X193470000Y-155102500D03*
X198550000Y-155102500D03*
X203630000Y-155102500D03*
X208710000Y-155102500D03*
D31*
X209980000Y-147800000D03*
D30*
X203021116Y-143902500D03*
D29*
X198124454Y-143527500D03*
D28*
X193980386Y-143152500D03*
D30*
X173150000Y-155102500D03*
X178230000Y-155102500D03*
X183310000Y-155102500D03*
X188390000Y-155102500D03*
D33*
X171880000Y-147800000D03*
D34*
X178838884Y-143902500D03*
D30*
X183735546Y-143527500D03*
D29*
X187879614Y-143152500D03*
X187879614Y-212772500D03*
D30*
X183735546Y-212397500D03*
D34*
X178838884Y-212022500D03*
D33*
X171880000Y-208125000D03*
D30*
X173150000Y-200822500D03*
X178230000Y-200822500D03*
X183310000Y-200822500D03*
X188390000Y-200822500D03*
%TD*%
D18*
%TO.C,Q2*%
X151990000Y-123980000D03*
D19*
X151990000Y-118900000D03*
X151990000Y-116360000D03*
X151990000Y-113820000D03*
%TD*%
D25*
%TO.C,L2*%
X268000000Y-116500000D03*
X294000000Y-80500000D03*
%TD*%
D13*
%TO.C,J11*%
X222790000Y-193600000D03*
X222790000Y-204400000D03*
X228000000Y-193600000D03*
X228000000Y-204400000D03*
X233210000Y-193600000D03*
X233210000Y-204400000D03*
%TD*%
D18*
%TO.C,Q4*%
X151990000Y-176480000D03*
D19*
X151990000Y-171400000D03*
X151990000Y-168860000D03*
X151990000Y-166320000D03*
%TD*%
D10*
%TO.C,D11*%
X240500000Y-159500000D03*
D11*
X240500000Y-170400000D03*
%TD*%
D10*
%TO.C,D9*%
X240500000Y-89500000D03*
D11*
X240500000Y-100400000D03*
%TD*%
D26*
%TO.C,J4*%
X81000000Y-167210000D03*
D27*
X81000000Y-169750000D03*
X81000000Y-172290000D03*
X81000000Y-174830000D03*
X81000000Y-177370000D03*
%TD*%
D17*
%TO.C,J6*%
X81100000Y-81210000D03*
X91900000Y-81210000D03*
X81100000Y-76000000D03*
X91900000Y-76000000D03*
X81100000Y-70790000D03*
X91900000Y-70790000D03*
%TD*%
D10*
%TO.C,R35*%
X240500000Y-142000000D03*
D11*
X240500000Y-152900000D03*
%TD*%
D20*
%TO.C,H7*%
X94000000Y-196050200D03*
%TD*%
D14*
%TO.C,TP15*%
X136000000Y-141500000D03*
%TD*%
D35*
%TO.C,J5*%
X82985000Y-118967500D03*
X82985000Y-159607500D03*
D36*
X81465000Y-127857500D03*
D37*
X84005000Y-127857500D03*
X81465000Y-130397500D03*
X84005000Y-130397500D03*
X81465000Y-132937500D03*
X84005000Y-132937500D03*
X81465000Y-135477500D03*
X84005000Y-135477500D03*
X81465000Y-138017500D03*
X84005000Y-138017500D03*
X81465000Y-140557500D03*
X84005000Y-140557500D03*
X81465000Y-143097500D03*
X84005000Y-143097500D03*
X81465000Y-145637500D03*
X84005000Y-145637500D03*
X81465000Y-148177500D03*
X84005000Y-148177500D03*
X81465000Y-150717500D03*
X84005000Y-150717500D03*
%TD*%
D20*
%TO.C,H6*%
X320500000Y-87900200D03*
%TD*%
D21*
%TO.C,U6*%
X110760000Y-175460000D03*
D22*
X113300000Y-175460000D03*
X118380000Y-175460000D03*
X120920000Y-175460000D03*
X123460000Y-175460000D03*
X126000000Y-175460000D03*
%TD*%
D34*
%TO.C,L1*%
X286613706Y-134412500D03*
D38*
X279500000Y-131250000D03*
D34*
X287027489Y-129911480D03*
D29*
X275372500Y-121372500D03*
X275372500Y-116292500D03*
X275372500Y-111212500D03*
X275372500Y-85812500D03*
X275372500Y-80732500D03*
X275372500Y-75652500D03*
D38*
X279500000Y-65775000D03*
X301725000Y-131250000D03*
D29*
X305852500Y-121372500D03*
X305852500Y-116292500D03*
X305852500Y-111212500D03*
X305852500Y-85812500D03*
X305852500Y-80732500D03*
X305852500Y-75652500D03*
D34*
X294197511Y-67113520D03*
D38*
X301725000Y-65775000D03*
D34*
X294611294Y-62612500D03*
%TD*%
D14*
%TO.C,TP16*%
X136000000Y-163000000D03*
%TD*%
D10*
%TO.C,R34*%
X240500000Y-107000000D03*
D11*
X240500000Y-117900000D03*
%TD*%
D21*
%TO.C,U5*%
X110760000Y-153960000D03*
D22*
X113300000Y-153960000D03*
X118380000Y-153960000D03*
X120920000Y-153960000D03*
X123460000Y-153960000D03*
X126000000Y-153960000D03*
%TD*%
D14*
%TO.C,TP7*%
X134500000Y-154000000D03*
%TD*%
%TO.C,TP6*%
X134500000Y-125250000D03*
%TD*%
%TO.C,TP14*%
X136000000Y-112500000D03*
%TD*%
D20*
%TO.C,H14*%
X94000000Y-94450200D03*
%TD*%
D26*
%TO.C,J12*%
X326000000Y-175460000D03*
D27*
X326000000Y-178000000D03*
X326000000Y-180540000D03*
%TD*%
D14*
%TO.C,TP11*%
X134500000Y-158500000D03*
%TD*%
D12*
%TO.C,H9*%
X228000000Y-138500000D03*
%TD*%
D28*
%TO.C,T1*%
X193980386Y-133772500D03*
D29*
X198124454Y-133397500D03*
D30*
X203021116Y-133022500D03*
D31*
X209980000Y-129125000D03*
D32*
X193470000Y-121822500D03*
X198550000Y-121822500D03*
X203630000Y-121822500D03*
X208710000Y-121822500D03*
X193470000Y-76102500D03*
X198550000Y-76102500D03*
X203630000Y-76102500D03*
X208710000Y-76102500D03*
D31*
X209980000Y-68800000D03*
D30*
X203021116Y-64902500D03*
D29*
X198124454Y-64527500D03*
D28*
X193980386Y-64152500D03*
D30*
X173150000Y-76102500D03*
X178230000Y-76102500D03*
X183310000Y-76102500D03*
X188390000Y-76102500D03*
D33*
X171880000Y-68800000D03*
D34*
X178838884Y-64902500D03*
D30*
X183735546Y-64527500D03*
D29*
X187879614Y-64152500D03*
X187879614Y-133772500D03*
D30*
X183735546Y-133397500D03*
D34*
X178838884Y-133022500D03*
D33*
X171880000Y-129125000D03*
D30*
X173150000Y-121822500D03*
X178230000Y-121822500D03*
X183310000Y-121822500D03*
X188390000Y-121822500D03*
%TD*%
D12*
%TO.C,H11*%
X150000000Y-64000000D03*
%TD*%
%TO.C,H2*%
X82500000Y-213000000D03*
%TD*%
%TO.C,H10*%
X228000000Y-213000000D03*
%TD*%
D34*
%TO.C,L2*%
X286613706Y-214637500D03*
D38*
X279500000Y-211475000D03*
D34*
X287027489Y-210136480D03*
D29*
X275372500Y-201597500D03*
X275372500Y-196517500D03*
X275372500Y-191437500D03*
X275372500Y-166037500D03*
X275372500Y-160957500D03*
X275372500Y-155877500D03*
D38*
X279500000Y-146000000D03*
X301725000Y-211475000D03*
D29*
X305852500Y-201597500D03*
X305852500Y-196517500D03*
X305852500Y-191437500D03*
X305852500Y-166037500D03*
X305852500Y-160957500D03*
X305852500Y-155877500D03*
D34*
X294197511Y-147338520D03*
D38*
X301725000Y-146000000D03*
D34*
X294611294Y-142837500D03*
%TD*%
D13*
%TO.C,J2*%
X323210000Y-127800000D03*
X323210000Y-117000000D03*
X318000000Y-127800000D03*
X318000000Y-117000000D03*
X312790000Y-127800000D03*
X312790000Y-117000000D03*
%TD*%
D39*
%TO.C,C91*%
X107500000Y-122537500D03*
X107500000Y-120462500D03*
%TD*%
D40*
%TO.C,C84*%
X92500000Y-134362500D03*
X92500000Y-132637500D03*
%TD*%
D41*
%TO.C,R18*%
X105812500Y-68500000D03*
X101187500Y-68500000D03*
%TD*%
D42*
%TO.C,IC1*%
X310100000Y-95350000D03*
X308500000Y-95350000D03*
X306900000Y-95350000D03*
D43*
X305700000Y-92850000D03*
D44*
X307000000Y-90500000D03*
X310000000Y-90500000D03*
D43*
X311300000Y-92850000D03*
%TD*%
D41*
%TO.C,R1*%
X138812500Y-207500000D03*
X134187500Y-207500000D03*
%TD*%
D45*
%TO.C,C27*%
X110962500Y-128250000D03*
X113037500Y-128250000D03*
%TD*%
D46*
%TO.C,R44*%
X320000000Y-180750000D03*
X318000000Y-180750000D03*
%TD*%
D47*
%TO.C,D6*%
X158500000Y-154350000D03*
X158500000Y-161150000D03*
%TD*%
D41*
%TO.C,R5*%
X110812500Y-207500000D03*
X106187500Y-207500000D03*
%TD*%
D48*
%TO.C,C16*%
X322500000Y-99712500D03*
X322500000Y-101787500D03*
%TD*%
D49*
%TO.C,R2*%
X127187500Y-207500000D03*
X131812500Y-207500000D03*
%TD*%
D45*
%TO.C,C24*%
X110962500Y-159500000D03*
X113037500Y-159500000D03*
%TD*%
D46*
%TO.C,FB3*%
X146000000Y-148750000D03*
X144000000Y-148750000D03*
%TD*%
D50*
%TO.C,R43*%
X320250000Y-99750000D03*
X320250000Y-101750000D03*
%TD*%
D46*
%TO.C,FB4*%
X146000000Y-166250000D03*
X144000000Y-166250000D03*
%TD*%
D39*
%TO.C,C86*%
X322250000Y-180787500D03*
X322250000Y-178712500D03*
%TD*%
D49*
%TO.C,R17*%
X108187500Y-68500000D03*
X112812500Y-68500000D03*
%TD*%
D41*
%TO.C,R12*%
X133812500Y-68500000D03*
X129187500Y-68500000D03*
%TD*%
D42*
%TO.C,IC2*%
X310100000Y-175450000D03*
X308500000Y-175450000D03*
X306900000Y-175450000D03*
D43*
X305700000Y-172950000D03*
D44*
X307000000Y-170600000D03*
X310000000Y-170600000D03*
D43*
X311300000Y-172950000D03*
%TD*%
D46*
%TO.C,FB2*%
X146000000Y-113750000D03*
X144000000Y-113750000D03*
%TD*%
D49*
%TO.C,R4*%
X113187500Y-207500000D03*
X117812500Y-207500000D03*
%TD*%
D45*
%TO.C,C87*%
X308712500Y-178500000D03*
X310787500Y-178500000D03*
%TD*%
D47*
%TO.C,D8*%
X158500000Y-101850000D03*
X158500000Y-108650000D03*
%TD*%
D41*
%TO.C,R16*%
X119812500Y-68500000D03*
X115187500Y-68500000D03*
%TD*%
D45*
%TO.C,C28*%
X110962500Y-157000000D03*
X113037500Y-157000000D03*
%TD*%
D51*
%TO.C,C85*%
X92500000Y-120137500D03*
X92500000Y-121862500D03*
%TD*%
D45*
%TO.C,C15*%
X308962500Y-98500000D03*
X311037500Y-98500000D03*
%TD*%
D41*
%TO.C,R3*%
X124812500Y-207500000D03*
X120187500Y-207500000D03*
%TD*%
D49*
%TO.C,R15*%
X122187500Y-68500000D03*
X126812500Y-68500000D03*
%TD*%
D45*
%TO.C,C23*%
X110962500Y-130750000D03*
X113037500Y-130750000D03*
%TD*%
%TO.C,C29*%
X110962500Y-179000000D03*
X113037500Y-179000000D03*
%TD*%
%TO.C,C22*%
X110962500Y-109250000D03*
X113037500Y-109250000D03*
%TD*%
%TO.C,C26*%
X110962500Y-106750000D03*
X113037500Y-106750000D03*
%TD*%
%TO.C,C25*%
X110962500Y-181500000D03*
X113037500Y-181500000D03*
%TD*%
D46*
%TO.C,FB1*%
X146000000Y-96500000D03*
X144000000Y-96500000D03*
%TD*%
M02*
