M48
; DRILL file {KiCad 7.0.6} date Sat Aug 12 12:52:23 2023
; FORMAT={-:-/ absolute / metric / decimal}
; #@! TF.CreationDate,2023-08-12T12:52:23-07:00
; #@! TF.GenerationSoftware,Kicad,Pcbnew,7.0.6
; #@! TF.FileFunction,Plated,1,4,PTH
FMAT,2
METRIC
; #@! TA.AperFunction,Plated,PTH,ViaDrill
T1C0.400
; #@! TA.AperFunction,Plated,PTH,ComponentDrill
T2C0.500
; #@! TA.AperFunction,Plated,PTH,ViaDrill
T3C0.600
; #@! TA.AperFunction,Plated,PTH,ComponentDrill
T4C0.890
; #@! TA.AperFunction,Plated,PTH,ComponentDrill
T5C1.000
; #@! TA.AperFunction,Plated,PTH,ComponentDrill
T6C1.190
; #@! TA.AperFunction,Plated,PTH,ComponentDrill
T7C1.499
; #@! TA.AperFunction,Plated,PTH,ComponentDrill
T8C1.500
; #@! TA.AperFunction,Plated,PTH,ComponentDrill
T9C2.200
; #@! TA.AperFunction,Plated,PTH,ComponentDrill
T10C2.362
; #@! TA.AperFunction,Plated,PTH,ComponentDrill
T11C2.500
; #@! TA.AperFunction,Plated,PTH,ComponentDrill
T12C2.570
; #@! TA.AperFunction,Plated,PTH,ComponentDrill
T13C2.700
; #@! TA.AperFunction,Plated,PTH,ComponentDrill
T14C3.200
; #@! TA.AperFunction,Plated,PTH,ComponentDrill
T15C4.000
; #@! TA.AperFunction,Plated,PTH,ComponentDrill
T16C4.200
; #@! TA.AperFunction,Plated,PTH,ComponentDrill
T17C5.500
%
G90
G05
T1
X86.5Y-170.25
X86.5Y-177.0
X88.475Y-120.0
X88.475Y-122.0
X88.475Y-132.5
X88.475Y-134.5
X91.5Y-172.25
X91.5Y-175.0
X92.5Y-120.0
X92.5Y-122.0
X92.5Y-132.5
X92.5Y-134.5
X94.75Y-127.0
X99.5Y-131.25
X100.75Y-103.5
X101.0Y-134.5
X101.25Y-148.25
X101.25Y-170.25
X103.6Y-147.0
X103.6Y-169.0
X104.0Y-122.5
X104.25Y-97.037
X104.25Y-118.037
X106.0Y-131.5
X106.0Y-169.0
X106.75Y-103.5
X106.75Y-153.5
X106.75Y-175.5
X107.5Y-120.462
X110.25Y-100.0
X110.25Y-121.0
X110.25Y-150.0
X110.25Y-171.5
X119.5Y-97.5
X119.5Y-147.75
X119.75Y-118.75
X119.75Y-169.25
X121.25Y-93.25
X121.25Y-94.25
X121.25Y-114.0
X121.25Y-115.0
X121.25Y-143.0
X121.25Y-144.0
X121.25Y-164.5
X121.25Y-165.5
X122.25Y-96.25
X122.25Y-97.5
X122.25Y-117.25
X122.25Y-118.75
X122.25Y-146.25
X122.25Y-147.75
X122.25Y-167.75
X122.25Y-169.25
X123.0Y-93.25
X123.0Y-94.25
X123.0Y-114.0
X123.0Y-115.0
X123.0Y-143.0
X123.0Y-144.0
X123.0Y-164.5
X123.0Y-165.5
X124.75Y-93.25
X124.75Y-94.25
X124.75Y-114.0
X124.75Y-115.0
X124.75Y-143.0
X124.75Y-144.0
X124.75Y-164.5
X124.75Y-165.5
X126.5Y-93.25
X126.5Y-94.25
X126.5Y-114.0
X126.5Y-115.0
X126.5Y-143.0
X126.5Y-144.0
X126.5Y-164.5
X126.5Y-165.5
X129.5Y-95.5
X129.5Y-97.25
X129.5Y-117.0
X129.5Y-118.75
X129.5Y-146.0
X129.5Y-147.75
X129.5Y-167.5
X129.5Y-169.25
X129.75Y-105.75
X129.75Y-127.25
X129.75Y-156.0
X129.75Y-177.5
X131.0Y-95.5
X131.0Y-97.25
X131.0Y-117.0
X131.0Y-118.75
X131.0Y-146.0
X131.0Y-147.75
X131.0Y-167.5
X131.0Y-169.25
X132.0Y-105.75
X132.0Y-127.25
X132.0Y-156.0
X132.0Y-177.5
X132.5Y-95.5
X132.5Y-97.25
X132.5Y-117.0
X132.5Y-118.75
X132.5Y-146.0
X132.5Y-147.75
X132.5Y-167.5
X132.5Y-169.25
X135.0Y-93.5
X135.0Y-115.0
X135.0Y-144.0
X135.0Y-165.5
X135.25Y-118.0
X135.25Y-121.5
X135.25Y-147.0
X135.25Y-150.5
X135.25Y-168.5
X135.25Y-172.0
X135.5Y-96.5
X135.5Y-100.0
X136.75Y-118.0
X136.75Y-121.5
X136.75Y-168.5
X136.75Y-172.0
X136.8Y-147.0
X136.8Y-150.5
X137.0Y-93.5
X137.0Y-96.5
X137.0Y-100.0
X137.0Y-115.0
X137.0Y-144.0
X137.0Y-165.5
X138.4Y-104.5
X138.4Y-106.1
X138.4Y-107.7
X138.4Y-109.3
X138.4Y-126.1
X138.4Y-127.7
X138.4Y-128.7
X138.4Y-130.3
X138.4Y-131.9
X138.4Y-133.5
X138.4Y-135.3
X138.4Y-137.3
X138.4Y-138.9
X138.4Y-140.3
X138.4Y-141.7
X138.4Y-156.5
X138.4Y-158.5
X138.4Y-160.1
X138.4Y-161.3
X138.4Y-162.6
X138.4Y-177.9
X138.4Y-179.3
X138.4Y-180.7
X138.4Y-182.3
X138.4Y-183.9
X138.4Y-185.5
X138.4Y-186.9
X138.5Y-110.75
X139.4Y-89.5
X139.4Y-91.1
X139.4Y-104.5
X139.4Y-106.1
X139.4Y-107.7
X139.4Y-109.3
X139.4Y-126.1
X139.4Y-127.7
X139.4Y-128.7
X139.4Y-130.3
X139.4Y-131.9
X139.4Y-133.5
X139.4Y-135.3
X139.4Y-137.3
X139.4Y-138.9
X139.4Y-140.3
X139.4Y-141.7
X139.4Y-156.5
X139.4Y-158.5
X139.4Y-160.1
X139.4Y-161.3
X139.4Y-162.6
X139.4Y-177.9
X139.4Y-179.3
X139.4Y-180.7
X139.4Y-182.3
X139.4Y-183.9
X139.4Y-185.5
X139.4Y-186.9
X139.5Y-110.75
X140.75Y-110.75
X140.8Y-89.5
X140.8Y-91.1
X140.8Y-104.5
X140.8Y-106.1
X140.8Y-107.7
X140.8Y-109.3
X140.8Y-126.1
X140.8Y-127.7
X140.8Y-128.7
X140.8Y-130.3
X140.8Y-131.9
X140.8Y-133.5
X140.8Y-135.3
X140.8Y-137.3
X140.8Y-138.9
X140.8Y-140.3
X140.8Y-141.7
X140.8Y-156.5
X140.8Y-158.3
X140.8Y-160.1
X140.8Y-161.3
X140.8Y-162.6
X140.8Y-177.9
X140.8Y-179.3
X140.8Y-180.7
X140.8Y-182.3
X140.8Y-183.9
X140.8Y-185.5
X140.8Y-186.9
X142.2Y-89.5
X142.2Y-91.1
X142.2Y-104.5
X142.2Y-106.1
X142.2Y-107.7
X142.2Y-109.3
X142.2Y-126.1
X142.2Y-127.7
X142.2Y-128.7
X142.2Y-130.3
X142.2Y-131.9
X142.2Y-133.5
X142.2Y-135.3
X142.2Y-137.3
X142.2Y-138.9
X142.2Y-140.3
X142.2Y-141.7
X142.2Y-156.5
X142.2Y-158.3
X142.2Y-160.1
X142.2Y-161.3
X142.2Y-162.6
X142.2Y-177.9
X142.2Y-179.3
X142.2Y-180.7
X142.2Y-182.3
X142.2Y-183.9
X142.2Y-185.5
X142.2Y-186.9
X142.25Y-110.75
X144.0Y-95.0
X144.0Y-96.5
X144.0Y-98.0
X144.0Y-112.25
X144.0Y-113.75
X144.0Y-115.25
X144.0Y-147.25
X144.0Y-148.75
X144.0Y-150.25
X144.0Y-164.75
X144.0Y-166.25
X144.0Y-167.75
X244.75Y-82.75
X244.75Y-84.25
X244.75Y-117.5
X244.75Y-118.75
X244.75Y-152.75
X244.75Y-154.25
X244.75Y-187.5
X244.75Y-188.75
X246.0Y-82.75
X246.0Y-84.25
X246.0Y-117.5
X246.0Y-118.75
X246.0Y-152.75
X246.0Y-154.25
X246.0Y-187.5
X246.0Y-188.75
X247.25Y-82.75
X247.25Y-84.25
X247.25Y-117.5
X247.25Y-118.75
X247.25Y-152.75
X247.25Y-154.25
X247.25Y-187.5
X247.25Y-188.75
X308.712Y-178.5
X322.25Y-178.75
X322.5Y-101.75
T2
X99.5Y-138.6
X100.75Y-120.5
X134.5Y-103.75
X134.5Y-108.25
X134.5Y-125.25
X134.5Y-129.75
X134.5Y-154.0
X134.5Y-158.5
X134.5Y-175.5
X134.5Y-180.0
X136.0Y-91.0
X136.0Y-112.5
X136.0Y-141.5
X136.0Y-163.0
T3
X165.9Y-62.1
X165.9Y-64.8
X165.9Y-67.6
X166.0Y-70.5
X166.0Y-73.2
X166.0Y-76.0
X166.0Y-121.1
X166.0Y-123.8
X166.0Y-126.6
X166.0Y-142.3
X166.0Y-145.0
X166.0Y-147.8
X166.0Y-200.0
X166.0Y-202.7
X166.0Y-205.5
X166.1Y-129.5
X166.1Y-132.2
X166.1Y-135.0
X166.1Y-150.7
X166.1Y-153.4
X166.1Y-156.2
X166.1Y-208.4
X166.1Y-211.1
X166.1Y-213.9
X168.6Y-62.1
X168.6Y-64.8
X168.7Y-73.2
X168.7Y-76.0
X168.7Y-121.1
X168.7Y-123.8
X168.7Y-142.3
X168.7Y-200.0
X168.7Y-202.7
X168.8Y-135.0
X168.8Y-153.4
X168.8Y-156.2
X168.8Y-213.9
X171.4Y-62.1
X171.5Y-142.3
X171.6Y-135.0
X171.6Y-213.9
X174.3Y-62.1
X174.4Y-73.2
X174.6Y-142.3
X174.7Y-135.0
X174.8Y-213.9
X177.0Y-62.1
X177.0Y-67.6
X177.1Y-70.5
X177.1Y-73.2
X177.3Y-126.6
X177.3Y-147.8
X177.4Y-129.5
X177.4Y-150.7
X177.4Y-205.5
X177.5Y-208.4
X179.8Y-62.1
X179.8Y-67.6
X179.9Y-70.5
X179.9Y-73.2
X180.1Y-123.8
X180.1Y-126.6
X180.1Y-147.8
X180.2Y-129.5
X180.2Y-150.7
X180.2Y-153.4
X180.2Y-156.2
X180.2Y-202.7
X180.2Y-205.5
X180.3Y-208.4
X182.6Y-62.1
X182.6Y-67.6
X182.7Y-70.5
X182.7Y-73.2
X183.1Y-205.5
X183.2Y-208.4
X183.3Y-126.6
X183.3Y-147.8
X183.4Y-129.5
X183.4Y-150.7
X185.3Y-62.1
X185.3Y-67.6
X185.4Y-70.5
X185.4Y-73.2
X185.8Y-200.0
X185.8Y-202.7
X185.8Y-205.5
X185.9Y-208.4
X185.9Y-211.1
X185.9Y-213.9
X186.0Y-121.1
X186.0Y-123.8
X186.0Y-126.6
X186.0Y-142.3
X186.0Y-145.0
X186.0Y-147.8
X186.1Y-129.5
X186.1Y-132.2
X186.1Y-135.0
X186.1Y-150.7
X186.1Y-153.4
X186.1Y-156.2
X188.1Y-62.1
X188.1Y-67.6
X188.2Y-70.5
X188.2Y-73.2
X188.6Y-205.5
X188.7Y-208.4
X188.8Y-126.6
X188.8Y-145.0
X188.8Y-147.8
X188.9Y-129.5
X188.9Y-132.2
X188.9Y-150.7
X308.962Y-98.5
X310.0Y-65.0
X310.0Y-67.5
X310.0Y-75.0
X310.0Y-77.5
X310.0Y-80.0
X310.0Y-82.5
X310.0Y-85.0
X310.0Y-87.5
X310.0Y-110.5
X310.0Y-113.0
X310.0Y-145.0
X310.0Y-147.5
X310.0Y-150.0
X310.0Y-152.5
X310.0Y-155.0
X310.0Y-157.5
X310.0Y-160.0
X310.0Y-162.5
X310.0Y-165.0
X310.0Y-167.5
X310.0Y-197.0
X310.0Y-199.5
X310.0Y-202.0
X310.0Y-204.5
X310.0Y-207.0
X310.0Y-209.5
X310.0Y-212.0
X312.5Y-65.0
X312.5Y-67.5
X312.5Y-75.0
X312.5Y-77.5
X312.5Y-80.0
X312.5Y-82.5
X312.5Y-85.0
X312.5Y-87.5
X312.5Y-110.5
X312.5Y-113.0
X312.5Y-145.0
X312.5Y-147.5
X312.5Y-150.0
X312.5Y-152.5
X312.5Y-155.0
X312.5Y-157.5
X312.5Y-160.0
X312.5Y-162.5
X312.5Y-165.0
X312.5Y-167.5
X312.5Y-197.0
X312.5Y-199.5
X312.5Y-202.0
X312.5Y-204.5
X312.5Y-207.0
X312.5Y-209.5
X312.5Y-212.0
X316.25Y-64.0
X316.25Y-65.5
X316.25Y-67.0
X316.25Y-68.75
X316.25Y-70.5
X316.25Y-72.0
X316.25Y-73.5
X316.25Y-75.25
X316.25Y-77.0
X316.25Y-78.5
X316.25Y-80.0
X316.25Y-94.75
X316.25Y-105.0
X316.25Y-106.75
X316.25Y-108.5
X316.25Y-110.0
X316.25Y-111.5
X316.25Y-150.0
X316.25Y-155.0
X316.25Y-160.0
X316.25Y-163.75
X316.25Y-168.75
X316.25Y-170.0
X316.25Y-171.25
X316.25Y-172.5
X316.25Y-173.75
X316.25Y-197.0
X316.25Y-198.5
X316.25Y-200.0
X316.25Y-201.75
X316.25Y-203.5
X316.25Y-205.0
X316.25Y-206.5
X316.25Y-208.25
X316.25Y-209.75
X316.25Y-211.25
X316.25Y-212.75
X323.0Y-70.0
X323.0Y-72.5
X323.0Y-75.0
X323.0Y-77.5
X323.0Y-80.0
X323.0Y-108.0
X323.0Y-110.5
X323.0Y-113.0
X323.0Y-160.0
X323.0Y-162.5
X323.0Y-165.0
X323.0Y-167.5
X323.0Y-170.0
X323.0Y-197.0
X323.0Y-199.5
X323.0Y-202.0
X323.0Y-204.5
X323.0Y-207.0
X325.0Y-70.0
X325.0Y-72.5
X325.0Y-75.0
X325.0Y-77.5
X325.0Y-80.0
X325.0Y-108.0
X325.0Y-110.5
X325.0Y-113.0
X325.0Y-160.0
X325.0Y-162.5
X325.0Y-165.0
X325.0Y-167.5
X325.0Y-170.0
X325.0Y-197.0
X325.0Y-199.5
X325.0Y-202.0
X325.0Y-204.5
X325.0Y-207.0
T4
X81.465Y-127.857
X81.465Y-130.398
X81.465Y-132.938
X81.465Y-135.477
X81.465Y-138.017
X81.465Y-140.558
X81.465Y-143.097
X81.465Y-145.637
X81.465Y-148.177
X81.465Y-150.718
X84.005Y-127.857
X84.005Y-130.398
X84.005Y-132.938
X84.005Y-135.477
X84.005Y-138.017
X84.005Y-140.558
X84.005Y-143.097
X84.005Y-145.637
X84.005Y-148.177
X84.005Y-150.718
T5
X91.975Y-111.0
X94.515Y-111.0
X98.225Y-179.5
X100.765Y-179.5
X110.76Y-103.5
X110.76Y-124.96
X110.76Y-153.96
X110.76Y-175.46
X113.3Y-103.5
X113.3Y-124.96
X113.3Y-153.96
X113.3Y-175.46
X118.38Y-103.5
X118.38Y-124.96
X118.38Y-153.96
X118.38Y-175.46
X120.92Y-103.5
X120.92Y-124.96
X120.92Y-153.96
X120.92Y-175.46
X123.46Y-103.5
X123.46Y-124.96
X123.46Y-153.96
X123.46Y-175.46
X126.0Y-103.5
X126.0Y-124.96
X126.0Y-153.96
X126.0Y-175.46
T6
X81.0Y-167.21
X81.0Y-169.75
X81.0Y-172.29
X81.0Y-174.83
X81.0Y-177.37
X325.98Y-96.96
X325.98Y-99.5
X325.98Y-102.04
X326.0Y-175.46
X326.0Y-178.0
X326.0Y-180.54
T7
X98.5Y-68.0
X98.5Y-78.2
X104.0Y-198.3
X104.0Y-208.5
X136.0Y-68.0
X136.0Y-78.2
X141.5Y-198.3
X141.5Y-208.5
T8
X151.99Y-96.32
X151.99Y-98.86
X151.99Y-101.4
X151.99Y-106.48
X151.99Y-113.82
X151.99Y-116.36
X151.99Y-118.9
X151.99Y-123.98
X151.99Y-148.82
X151.99Y-151.36
X151.99Y-153.9
X151.99Y-158.98
X151.99Y-166.32
X151.99Y-168.86
X151.99Y-171.4
X151.99Y-176.48
X240.5Y-72.0
X240.5Y-82.9
X240.5Y-89.5
X240.5Y-100.4
X240.5Y-107.0
X240.5Y-117.9
X240.5Y-124.5
X240.5Y-135.4
X240.5Y-142.0
X240.5Y-152.9
X240.5Y-159.5
X240.5Y-170.4
X240.5Y-177.0
X240.5Y-187.9
X240.5Y-194.5
X240.5Y-205.4
T9
X187.88Y-64.153
X187.88Y-133.773
X187.88Y-143.153
X187.88Y-212.772
T11
X275.373Y-75.653
X275.373Y-80.733
X275.373Y-85.812
X275.373Y-111.212
X275.373Y-116.292
X275.373Y-121.372
X275.373Y-155.877
X275.373Y-160.957
X275.373Y-166.037
X275.373Y-191.438
X275.373Y-196.517
X275.373Y-201.597
X305.852Y-75.653
X305.852Y-80.733
X305.852Y-85.812
X305.852Y-111.212
X305.852Y-116.292
X305.852Y-121.372
X305.852Y-155.877
X305.852Y-160.957
X305.852Y-166.037
X305.852Y-191.438
X305.852Y-196.517
X305.852Y-201.597
T12
X81.1Y-70.79
X81.1Y-76.0
X81.1Y-81.21
X91.9Y-70.79
X91.9Y-76.0
X91.9Y-81.21
X142.6Y-70.79
X142.6Y-76.0
X142.6Y-81.21
X153.4Y-70.79
X153.4Y-76.0
X153.4Y-81.21
X222.79Y-80.6
X222.79Y-91.4
X222.79Y-116.6
X222.79Y-127.4
X222.79Y-151.1
X222.79Y-161.9
X222.79Y-193.6
X222.79Y-204.4
X228.0Y-80.6
X228.0Y-91.4
X228.0Y-116.6
X228.0Y-127.4
X228.0Y-151.1
X228.0Y-161.9
X228.0Y-193.6
X228.0Y-204.4
X233.21Y-80.6
X233.21Y-91.4
X233.21Y-116.6
X233.21Y-127.4
X233.21Y-151.1
X233.21Y-161.9
X233.21Y-193.6
X233.21Y-204.4
X312.79Y-117.0
X312.79Y-127.8
X318.0Y-117.0
X318.0Y-127.8
X323.21Y-117.0
X323.21Y-127.8
T13
X173.15Y-76.102
X173.15Y-121.822
X173.15Y-155.102
X173.15Y-200.822
X178.23Y-76.102
X178.23Y-121.822
X178.23Y-155.102
X178.23Y-200.822
X183.31Y-76.102
X183.31Y-121.822
X183.31Y-155.102
X183.31Y-200.822
X188.39Y-76.102
X188.39Y-121.822
X188.39Y-155.102
X188.39Y-200.822
T14
X183.736Y-64.528
X183.736Y-133.398
X183.736Y-143.528
X183.736Y-212.397
T15
X286.614Y-134.412
X286.614Y-214.637
X287.027Y-129.911
X287.027Y-210.136
X294.198Y-67.114
X294.198Y-147.339
X294.611Y-62.612
X294.611Y-142.838
T16
X178.839Y-64.903
X178.839Y-133.023
X178.839Y-143.903
X178.839Y-212.022
T17
X171.88Y-68.8
X171.88Y-129.125
X171.88Y-147.8
X171.88Y-208.125
X279.5Y-65.775
X279.5Y-131.25
X279.5Y-146.0
X279.5Y-211.475
X301.725Y-65.775
X301.725Y-131.25
X301.725Y-146.0
X301.725Y-211.475
T10
G00X270.375Y-116.5
M15
G01X265.625Y-116.5
M16
G05
G00X270.375Y-197.0
M15
G01X265.625Y-197.0
M16
G05
G00X296.375Y-80.5
M15
G01X291.625Y-80.5
M16
G05
G00X296.375Y-161.0
M15
G01X291.625Y-161.0
M16
G05
T0
M30
